<?xml version="1.0" ?><svg height="60px" version="1.1" viewBox="0 0 60 60" width="60px" xmlns="http://www.w3.org/2000/svg"><title/><defs/><g fill="none" fill-rule="evenodd" id="black" stroke="none" stroke-width="1"><g id="imessage"><path d="M30,60 C46.5685433,60 60,46.5685433 60,30 C60,13.4314567 46.5685433,0 30,0 C13.4314567,0 0,13.4314567 0,30 C0,46.5685433 13.4314567,60 30,60 Z" fill="#000000"/><path d="M29.4230769,16.1538462 C20.8202421,16.1538462 13.8461538,21.7226379 13.8461538,28.5921472 C13.8461538,32.0826382 15.6491159,35.2353789 18.5493612,37.494217 C19.3736159,42.0067437 15.3903771,42.8406691 15.3903771,42.8406691 C15.3903771,42.8406691 14.8929664,43.4770937 16.1288923,43.7121559 C21.1033041,44.6187809 25.125764,40.627874 25.125764,40.627874 L25.1303247,40.5479044 C26.4945558,40.8596041 27.933581,41.0301453 29.4230769,41.0301453 C38.0262158,41.0301453 45,35.4613536 45,28.5918443 C45,21.722335 38.0262158,16.1538462 29.4230769,16.1538462 L29.4230769,16.1538462 Z" fill="#FFFFFF"/></g></g></svg>